# Blender v2.78 (sub 0) OBJ File: 'CampFire.blend'
# www.blender.org
o Cube_Cube.001
v 0.589653 -0.014048 0.535480
v 0.577454 0.107706 0.558001
v -0.622710 0.647448 -0.047648
v -0.551953 0.751736 -0.054065
v 0.655990 -0.018573 0.374864
v 0.690929 0.090180 0.403372
v -0.566585 0.637176 -0.194412
v -0.510341 0.745293 -0.159946
v -0.223212 0.436504 0.130329
v 0.192943 0.200951 0.344721
v 0.258450 0.295873 0.356546
v -0.159838 0.537295 0.157779
v 0.243588 0.189671 0.183911
v -0.183164 0.430334 -0.001178
v -0.120701 0.519026 0.015265
v 0.366695 0.256042 0.217576
v 0.527798 -0.001161 -0.419932
v 0.554973 0.119762 -0.422736
v -0.427616 0.807858 0.326652
v -0.395675 0.900262 0.240182
v 0.406271 -0.015452 -0.543258
v 0.448028 0.132967 -0.554714
v -0.541017 0.789404 0.219198
v -0.476952 0.887743 0.161459
v -0.125147 0.548076 0.073683
v 0.215080 0.262141 -0.175340
v 0.260808 0.346191 -0.248027
v -0.065373 0.638240 0.008045
v 0.086511 0.243372 -0.283205
v -0.230546 0.535903 -0.013855
v -0.182367 0.614293 -0.080768
v 0.172516 0.291768 -0.394234
v -0.398017 0.003058 -0.766086
v -0.402547 0.182863 -0.724166
v 0.259123 0.506679 0.483703
v 0.204527 0.617355 0.457365
v -0.547383 -0.002036 -0.677301
v -0.552205 0.110978 -0.709939
v 0.125888 0.495459 0.566876
v 0.107563 0.610338 0.516802
v 0.034494 0.347049 0.083913
v -0.183037 0.166409 -0.357317
v -0.223045 0.268087 -0.396074
v 0.005864 0.455065 0.034503
v -0.320350 0.152960 -0.259765
v -0.076534 0.338943 0.164803
v -0.111693 0.434331 0.123531
v -0.394928 0.233294 -0.352923
v -0.407354 0.003695 0.705097
v -0.451709 0.167575 0.722085
v 0.064906 0.883308 -0.598227
v 0.079084 0.989086 -0.506440
v -0.174123 0.002583 0.750971
v -0.212817 0.143968 0.829738
v 0.232145 0.876329 -0.571057
v 0.199903 0.984995 -0.485484
v -0.090118 0.617905 -0.257094
v -0.276403 0.345431 0.172301
v -0.283384 0.466396 0.284537
v -0.119129 0.745889 -0.142308
v -0.046471 0.336725 0.195581
v 0.087013 0.628898 -0.200313
v 0.085732 0.724791 -0.137192
v -0.064857 0.412083 0.384248
v 0.881457 0.007033 -0.052855
v 0.845900 0.115865 0.008723
v -0.597941 0.280712 0.230743
v -0.577826 0.400686 0.223309
v 0.849361 0.032493 -0.221041
v 0.858418 0.143520 -0.180705
v -0.628915 0.296836 0.077336
v -0.599584 0.413573 0.112396
v -0.120239 0.197904 0.127472
v 0.397850 0.095221 0.039548
v 0.426500 0.203773 0.047145
v -0.086734 0.310404 0.151022
v 0.355321 0.109482 -0.123402
v -0.157054 0.211997 -0.004211
v -0.126398 0.313513 0.006837
v 0.482951 0.186990 -0.098991
v -0.845525 -0.022104 0.465355
v -0.793030 0.089594 0.501637
v 0.446112 0.416874 -0.203997
v 0.431573 0.506571 -0.152352
v -0.928626 0.006620 0.316359
v -0.924291 0.115404 0.363882
v 0.374948 0.449570 -0.280127
v 0.368381 0.543039 -0.234354
v 0.021055 0.280620 0.003515
v -0.423327 0.120133 0.246191
v -0.454312 0.224223 0.280027
v -0.004243 0.388072 0.053200
v -0.493672 0.138972 0.093778
v -0.034211 0.298663 -0.120930
v -0.063729 0.395569 -0.083810
v -0.585802 0.225649 0.154011
v -0.478866 -0.006753 0.401851
v 0.326705 -0.006753 0.401851
v -0.478866 -0.006753 -0.403719
v 0.326705 -0.006753 -0.403719
v -0.666766 -0.006753 -0.135196
v -0.666766 -0.006753 0.133328
v -0.210342 -0.006753 0.591329
v 0.058181 -0.006753 0.591329
v 0.552712 -0.006753 0.133328
v 0.552712 -0.006753 -0.135196
v 0.058181 -0.006753 -0.564814
v -0.210342 -0.006753 -0.564814
v -0.210342 0.137868 0.133328
v -0.210342 0.137868 -0.135196
v 0.058181 0.137868 0.133328
v 0.058181 0.137868 -0.135196
vt 0.2650 0.6294
vt 0.2593 0.6030
vt 0.2652 0.6028
vt 0.2624 0.5911
vt 0.2675 0.5853
vt 0.2688 0.5917
vt 0.2630 0.5466
vt 0.2686 0.5315
vt 0.2688 0.5494
vt 0.2981 0.7035
vt 0.3097 0.6864
vt 0.3097 0.7057
vt 0.2300 0.6344
vt 0.2473 0.6864
vt 0.2295 0.6872
vt 0.2650 0.6396
vt 0.2853 0.6807
vt 0.2659 0.6838
vt 0.2853 0.5277
vt 0.2706 0.5771
vt 0.2738 0.5261
vt 0.2828 0.6359
vt 0.2312 0.5258
vt 0.2459 0.5762
vt 0.2319 0.5782
vt 0.2472 0.6322
vt 0.2614 0.5865
vt 0.2679 0.5688
vt 0.2625 0.5688
vt 0.2595 0.6822
vt 0.2652 0.6582
vt 0.2651 0.6851
vt 0.2589 0.6302
vt 0.2396 0.6533
vt 0.2461 0.6748
vt 0.2396 0.6757
vt 0.2651 0.7000
vt 0.2748 0.6838
vt 0.2748 0.7012
vt 0.2349 0.6797
vt 0.2301 0.7020
vt 0.2294 0.6753
vt 0.2461 0.6041
vt 0.2384 0.6075
vt 0.2404 0.6028
vt 0.2387 0.5799
vt 0.2471 0.6018
vt 0.2384 0.6028
vt 0.2824 0.6207
vt 0.2656 0.6609
vt 0.2650 0.6220
vt 0.2849 0.5273
vt 0.2705 0.5683
vt 0.2736 0.5248
vt 0.2393 0.5327
vt 0.2465 0.5539
vt 0.2397 0.5555
vt 0.2470 0.5780
vt 0.2361 0.6228
vt 0.2301 0.6476
vt 0.2297 0.6221
vt 0.2354 0.6485
vt 0.2436 0.6112
vt 0.2388 0.6298
vt 0.2457 0.6530
vt 0.2229 0.6356
vt 0.2167 0.6130
vt 0.2219 0.6149
vt 0.2250 0.6095
vt 0.2711 0.6574
vt 0.2659 0.6784
vt 0.2652 0.6533
vt 0.2872 0.6897
vt 0.3026 0.7035
vt 0.2849 0.7018
vt 0.2478 0.6310
vt 0.2650 0.6809
vt 0.2473 0.6820
vt 0.2849 0.6355
vt 0.3025 0.6718
vt 0.2885 0.6785
vt 0.2986 0.5254
vt 0.2868 0.5744
vt 0.2870 0.5248
vt 0.3025 0.6306
vt 0.2490 0.5262
vt 0.2636 0.5745
vt 0.2498 0.5768
vt 0.2649 0.6284
vt 0.2716 0.6028
vt 0.2655 0.6267
vt 0.2654 0.6031
vt 0.2710 0.6273
vt 0.2159 0.6729
vt 0.2241 0.6589
vt 0.2250 0.6803
vt 0.2172 0.6352
vt 0.3013 0.5824
vt 0.2866 0.5354
vt 0.2978 0.5400
vt 0.3056 0.5272
vt 0.2377 0.5922
vt 0.2301 0.6221
vt 0.2294 0.5855
vt 0.2654 0.6900
vt 0.2816 0.6655
vt 0.2802 0.6900
vt 0.2159 0.5787
vt 0.2294 0.6083
vt 0.2174 0.6092
vt 0.2239 0.5798
vt 0.1972 0.5297
vt 0.2239 0.5261
vt 0.2089 0.6820
vt 0.2217 0.6411
vt 0.2214 0.6838
vt 0.1993 0.5832
vt 0.2209 0.5324
vt 0.2279 0.5513
vt 0.2185 0.5530
vt 0.2274 0.5767
vt 0.2384 0.5327
vt 0.2294 0.5559
vt 0.2314 0.5315
vt 0.2371 0.5577
vt 0.2892 0.6775
vt 0.3009 0.6312
vt 0.3056 0.6835
vt 0.2853 0.5809
vt 0.2606 0.5571
vt 0.2545 0.5366
vt 0.2605 0.5376
vt 0.2551 0.5321
vt 0.2614 0.5315
vt 0.2584 0.6617
vt 0.2533 0.6848
vt 0.2526 0.6578
vt 0.2473 0.7031
vt 0.2592 0.6879
vt 0.2592 0.7055
vt 0.1946 0.6396
vt 0.2118 0.6952
vt 0.1942 0.6953
vt 0.2239 0.6468
vt 0.2445 0.6886
vt 0.2253 0.6930
vt 0.2442 0.5268
vt 0.2293 0.5805
vt 0.2326 0.5261
vt 0.2419 0.6413
vt 0.1952 0.5250
vt 0.2101 0.5789
vt 0.1961 0.5802
vt 0.2118 0.6384
vt 0.2589 0.6028
vt 0.2530 0.6290
vt 0.2528 0.6033
vt 0.2583 0.6293
vt 0.2559 0.5977
vt 0.2612 0.5790
vt 0.2614 0.5991
vt 0.2546 0.5576
vt 0.2534 0.5719
vt 0.2471 0.5917
vt 0.2473 0.5715
vt 0.2545 0.5968
vt 0.2530 0.5905
vt 0.2469 0.6028
vt 0.2520 0.6264
vt 0.2461 0.6308
vt 0.2975 0.7008
vt 0.2857 0.6852
vt 0.2975 0.6835
vt 0.2122 0.5788
vt 0.2295 0.5248
vt 0.2295 0.5800
vt 0.2445 0.5716
vt 0.2650 0.5308
vt 0.2624 0.5771
vt 0.2532 0.6900
vt 0.2650 0.6346
vt 0.2648 0.6894
vt 0.2498 0.6367
vt 0.2137 0.6361
vt 0.2290 0.6894
vt 0.2129 0.6894
vt 0.2277 0.6372
vt 0.2464 0.6870
vt 0.2519 0.6596
vt 0.2526 0.6867
vt 0.2465 0.6603
vt 0.2541 0.5508
vt 0.2488 0.5328
vt 0.2545 0.5315
vt 0.2484 0.5510
vt 0.0732 0.6416
vt 0.0704 0.6862
vt 0.0383 0.6741
vt 0.0545 0.6172
vt 0.0142 0.6131
vt 0.0233 0.5756
vt 0.0196 0.6498
vt 0.0809 0.5516
vt 0.0767 0.5967
vt 0.0455 0.5551
vt 0.1153 0.5615
vt 0.0954 0.6211
vt 0.1370 0.6247
vt 0.1340 0.5859
vt 0.1306 0.6657
vt 0.0797 0.7007
vt 0.0130 0.6392
vt 0.1357 0.6277
vt 0.2630 0.5334
vt 0.2975 0.6835
vt 0.2853 0.5806
vt 0.2473 0.5248
vt 0.2595 0.6589
vt 0.2650 0.6874
vt 0.2361 0.7016
vt 0.2849 0.6597
vt 0.2848 0.5734
vt 0.2471 0.5315
vt 0.2447 0.6291
vt 0.2189 0.6092
vt 0.2716 0.6771
vt 0.3026 0.6785
vt 0.3018 0.5769
vt 0.2650 0.5248
vt 0.2189 0.6580
vt 0.2921 0.5261
vt 0.2384 0.6220
vt 0.2650 0.6609
vt 0.2015 0.6355
vt 0.2294 0.5315
vt 0.2867 0.6282
vt 0.2589 0.6833
vt 0.2473 0.6820
vt 0.2445 0.5826
vt 0.2113 0.5248
vt 0.2555 0.5789
vt 0.2481 0.5963
vt 0.2526 0.6037
vt 0.2853 0.7062
vt 0.2118 0.5251
vt 0.2459 0.5261
vt 0.1084 0.6862
vt 0.0690 0.5662
vt 0.1043 0.5697
vt 0.1266 0.5902
vt 0.1304 0.6643
vt 0.1117 0.6887
vt 0.0418 0.7007
vt 0.0195 0.6802
vt 0.0159 0.6004
vt 0.0346 0.5761
vn -0.2818 0.2482 0.9268
vn -0.7885 0.5142 -0.3375
vn 0.3432 -0.1678 -0.9242
vn 0.8550 -0.3700 0.3635
vn -0.4160 -0.8975 -0.1465
vn 0.3707 0.9134 0.1685
vn 0.4555 0.8814 0.1254
vn 0.4437 0.8916 0.0901
vn -0.4334 -0.8967 -0.0899
vn -0.4585 -0.8849 -0.0823
vn 0.4664 0.0391 -0.8837
vn 0.3583 -0.0799 -0.9302
vn -0.5123 -0.2056 0.8338
vn -0.4424 0.0341 0.8962
vn 0.7494 0.2955 0.5926
vn -0.5721 0.6571 0.4909
vn -0.7189 -0.2285 -0.6565
vn 0.7041 -0.2494 -0.6649
vn -0.3505 -0.8261 0.4412
vn 0.2285 0.8592 -0.4578
vn 0.3463 0.8029 -0.4852
vn 0.3085 0.8154 -0.4898
vn -0.3043 -0.8224 0.4807
vn -0.3069 -0.8060 0.5061
vn -0.6253 -0.0499 -0.7788
vn -0.7148 -0.1447 -0.6842
vn 0.5558 -0.1058 0.8245
vn 0.6488 0.1172 0.7519
vn 0.7935 0.2606 -0.5499
vn 0.4570 0.4129 0.7878
vn -0.8365 -0.1742 0.5195
vn -0.4866 -0.2615 -0.8336
vn 0.1949 -0.9418 0.2739
vn -0.4389 0.8915 -0.1121
vn -0.2400 0.9289 -0.2819
vn -0.2512 0.9362 -0.2457
vn 0.2428 -0.9402 0.2390
vn 0.2680 -0.9307 0.2489
vn -0.8993 0.0461 0.4348
vn -0.8474 -0.0856 0.5241
vn 0.8525 0.1390 -0.5039
vn 0.8917 0.0297 -0.4517
vn -0.9353 0.2950 -0.1955
vn 0.1495 0.6365 -0.7566
vn 0.9805 -0.1297 0.1474
vn -0.1679 -0.5144 0.8409
vn 0.0982 -0.8485 -0.5201
vn -0.1302 0.8680 0.4792
vn -0.0734 0.8103 0.5813
vn -0.0191 0.8599 0.5102
vn 0.2218 -0.8159 -0.5340
vn 0.0214 -0.8483 -0.5290
vn 0.9328 -0.0071 0.3604
vn 0.9648 -0.1354 0.2253
vn -0.9100 -0.2092 -0.3579
vn -0.9340 0.0967 -0.3439
vn 0.2153 0.0244 0.9762
vn -0.9609 0.1776 0.2127
vn -0.1047 0.4516 -0.8861
vn 0.9819 -0.0114 -0.1891
vn -0.1985 -0.9740 -0.1096
vn 0.1463 0.9774 0.1524
vn 0.2212 0.9727 0.0696
vn 0.1971 0.9797 -0.0364
vn -0.1819 -0.9818 -0.0542
vn -0.1998 -0.9793 -0.0336
vn -0.1074 0.3106 -0.9444
vn -0.1924 0.1634 -0.9676
vn 0.0821 -0.4703 0.8787
vn 0.1168 -0.2367 0.9645
vn 0.4704 -0.2767 0.8379
vn 0.7461 0.4189 -0.5175
vn -0.4771 0.0996 -0.8732
vn -0.8746 -0.1644 0.4561
vn 0.1873 -0.9606 -0.2052
vn -0.2193 0.9458 0.2395
vn -0.0411 0.9008 0.4323
vn -0.2624 0.9506 0.1660
vn 0.0679 -0.8921 -0.4466
vn 0.2194 -0.9470 -0.2347
vn -0.4167 0.3760 -0.8276
vn -0.4687 0.1879 -0.8632
vn 0.5262 -0.4761 0.7046
vn 0.4850 -0.1364 0.8638
vn 0.1880 0.9308 -0.3133
vn -0.2955 0.9327 -0.2068
vn 0.0000 0.9477 -0.3190
vn -0.2955 0.9327 0.2068
vn -0.3021 0.9533 0.0000
vn 0.0000 0.9536 0.3011
vn 0.0000 1.0000 0.0000
vn 0.2078 0.9328 0.2945
vn 0.2807 0.9598 -0.0000
vn 0.0000 -1.0000 0.0000
vn -0.4559 0.0446 0.8889
vn -0.7855 0.5170 -0.3402
vn 0.5182 0.0572 -0.8533
vn 0.8043 -0.0292 0.5935
vn -0.4236 -0.9031 -0.0701
vn 0.4566 0.8837 0.1024
vn 0.4727 0.8811 0.0169
vn 0.4914 0.8706 0.0233
vn -0.4318 -0.8961 -0.1024
vn -0.4565 -0.8844 -0.0975
vn 0.3665 -0.0863 -0.9264
vn 0.3230 -0.1232 -0.9383
vn -0.4394 0.1940 0.8771
vn -0.3611 0.1342 0.9228
vn 0.6373 0.1304 0.7595
vn -0.5731 0.6592 0.4869
vn -0.4738 0.0655 -0.8782
vn 0.7546 -0.1842 -0.6299
vn -0.2817 -0.8306 0.4803
vn 0.4667 0.8338 -0.2948
vn 0.2507 0.7995 -0.5458
vn 0.2640 0.7856 -0.5596
vn -0.3154 -0.8221 0.4740
vn -0.3205 -0.8058 0.4979
vn -0.7084 -0.1528 -0.6891
vn -0.7381 -0.1801 -0.6502
vn 0.6384 0.2745 0.7191
vn 0.7092 0.1991 0.6763
vn 0.8987 0.0383 -0.4369
vn 0.4532 0.4159 0.7884
vn -0.9216 0.0709 0.3817
vn -0.1956 0.2180 -0.9561
vn 0.2464 -0.9446 0.2167
vn -0.2272 0.9656 -0.1265
vn -0.3187 0.9253 -0.2054
vn -0.3304 0.9172 -0.2226
vn 0.2340 -0.9400 0.2481
vn 0.2573 -0.9307 0.2599
vn -0.8520 -0.0909 0.5157
vn -0.8264 -0.1326 0.5472
vn 0.8521 0.1434 -0.5034
vn 0.8482 0.1389 -0.5112
vn -0.9068 0.1483 -0.3946
vn 0.1524 0.6390 -0.7540
vn 0.9354 0.0621 0.3481
vn -0.4189 -0.2051 0.8846
vn 0.0193 -0.8587 -0.5122
vn -0.0447 0.8329 0.5516
vn 0.0691 0.8118 0.5798
vn 0.0705 0.8219 0.5653
vn 0.0527 -0.8400 -0.5400
vn 0.2207 -0.8188 -0.5299
vn 0.9669 -0.1312 0.2189
vn 0.9681 -0.1854 0.1684
vn -0.9531 0.1746 -0.2474
vn -0.9518 0.1772 -0.2502
vn 0.0997 -0.2322 0.9675
vn -0.9623 0.1743 0.2090
vn -0.1606 0.3486 -0.9234
vn 0.9612 0.2569 0.1010
vn -0.1623 -0.9858 -0.0439
vn 0.2020 0.9788 -0.0344
vn 0.1768 0.9839 -0.0274
vn 0.1969 0.9799 -0.0330
vn -0.1875 -0.9801 -0.0652
vn -0.2064 -0.9773 -0.0469
vn -0.1824 0.1607 -0.9700
vn -0.0734 0.4076 -0.9102
vn 0.0724 -0.0886 0.9934
vn 0.1742 -0.1144 0.9780
vn 0.5006 -0.3696 0.7828
vn 0.8155 0.2998 -0.4951
vn -0.5732 0.3471 -0.7422
vn -0.7097 0.1073 0.6963
vn 0.1735 -0.9445 -0.2788
vn -0.1247 0.9469 0.2963
vn -0.2657 0.9494 0.1673
vn -0.2067 0.9519 0.2264
vn 0.2495 -0.9365 -0.2466
vn 0.2227 -0.9497 -0.2202
vn -0.4208 0.2099 -0.8825
vn -0.4475 0.1383 -0.8835
vn 0.5712 -0.0950 0.8153
vn 0.5319 -0.2490 0.8094
vn 0.2732 0.9341 -0.2299
vn -0.1880 0.9308 -0.3133
vn -0.2078 0.9328 0.2945
vn 0.2732 0.9341 0.2299
s off
f 9/1/1 4/2/1 3/3/1
f 4/4/2 7/5/2 3/6/2
f 16/7/3 5/8/3 13/9/3
f 6/10/4 1/11/4 5/12/4
f 10/13/5 5/14/5 1/15/5
f 16/16/6 2/17/6 6/18/6
f 4/19/7 15/20/7 8/21/7
f 15/20/8 11/22/8 16/16/8
f 3/23/9 14/24/9 9/25/9
f 9/25/10 13/26/10 10/13/10
f 8/27/11 14/28/11 7/5/11
f 15/29/12 13/9/12 14/28/12
f 2/30/13 10/31/13 1/32/13
f 10/31/14 12/33/14 9/1/14
f 25/34/15 20/35/15 19/36/15
f 20/37/16 23/38/16 19/39/16
f 32/40/17 21/41/17 29/42/17
f 22/43/18 17/44/18 21/45/18
f 26/46/19 21/47/19 17/48/19
f 27/49/20 22/50/20 32/51/20
f 20/52/21 31/53/21 24/54/21
f 31/53/22 27/49/22 32/51/22
f 19/55/23 30/56/23 25/57/23
f 25/57/24 29/58/24 26/46/24
f 24/59/25 30/60/25 23/61/25
f 31/62/26 29/42/26 30/60/26
f 18/63/27 26/64/27 17/44/27
f 26/64/28 28/65/28 25/34/28
f 41/66/29 36/67/29 35/68/29
f 36/67/30 39/69/30 35/68/30
f 48/70/31 37/71/31 45/72/31
f 38/73/32 33/74/32 37/75/32
f 42/76/33 37/77/33 33/78/33
f 48/79/34 34/80/34 38/81/34
f 36/82/35 47/83/35 40/84/35
f 47/83/36 43/85/36 48/79/36
f 35/86/37 46/87/37 41/88/37
f 41/88/38 45/89/38 42/76/38
f 40/90/39 46/91/39 39/92/39
f 47/93/40 45/72/40 46/91/40
f 34/94/41 42/95/41 33/96/41
f 42/95/42 44/97/42 41/66/42
f 57/98/43 52/99/43 51/100/43
f 52/99/44 55/101/44 51/100/44
f 64/102/45 53/103/45 61/104/45
f 54/105/46 49/106/46 53/107/46
f 58/108/47 53/109/47 49/110/47
f 64/111/48 50/112/48 54/113/48
f 52/114/49 63/115/49 56/116/49
f 63/115/50 59/117/50 64/111/50
f 51/118/51 62/119/51 57/120/51
f 57/120/52 61/121/52 58/108/52
f 56/122/53 62/123/53 55/124/53
f 63/125/54 61/104/54 62/123/54
f 50/126/55 58/127/55 49/128/55
f 58/127/56 60/129/56 57/98/56
f 73/130/57 68/131/57 67/132/57
f 67/132/58 72/133/58 71/134/58
f 80/135/59 69/136/59 77/137/59
f 70/138/60 65/139/60 69/140/60
f 74/141/61 69/142/61 65/143/61
f 80/144/62 66/145/62 70/146/62
f 68/147/63 79/148/63 72/149/63
f 79/148/64 75/150/64 80/144/64
f 67/151/65 78/152/65 73/153/65
f 73/153/66 77/154/66 74/141/66
f 72/155/67 78/156/67 71/157/67
f 79/158/68 77/137/68 78/156/68
f 66/159/69 74/160/69 65/161/69
f 74/160/70 76/162/70 73/130/70
f 89/163/71 84/164/71 92/165/71
f 87/166/72 84/164/72 83/167/72
f 85/168/73 96/169/73 93/170/73
f 81/171/74 86/172/74 85/173/74
f 90/174/75 85/175/75 93/176/75
f 96/177/76 82/178/76 91/179/76
f 88/180/77 92/181/77 84/182/77
f 95/183/78 91/179/78 92/181/78
f 89/184/79 87/185/79 83/186/79
f 89/184/80 93/176/80 94/187/80
f 87/188/81 95/189/81 88/190/81
f 93/170/82 95/189/82 94/191/82
f 90/192/83 82/193/83 81/194/83
f 90/192/84 92/165/84 91/195/84
f 112/196/85 100/197/85 107/198/85
f 110/199/86 99/200/86 101/201/86
f 112/196/87 108/202/87 110/199/87
f 97/203/88 109/204/88 102/205/88
f 109/204/89 101/201/89 102/205/89
f 103/206/90 111/207/90 109/204/90
f 111/207/91 110/199/91 109/204/91
f 98/208/92 111/207/92 104/209/92
f 105/210/93 112/196/93 111/207/93
f 100/211/94 98/212/94 99/213/94
f 9/1/95 12/33/95 4/2/95
f 4/4/96 8/27/96 7/5/96
f 16/7/97 6/214/97 5/8/97
f 6/10/98 2/215/98 1/11/98
f 10/13/99 13/26/99 5/14/99
f 16/16/100 11/22/100 2/17/100
f 4/19/101 12/216/101 15/20/101
f 15/20/102 12/216/102 11/22/102
f 3/23/103 7/217/103 14/24/103
f 9/25/104 14/24/104 13/26/104
f 8/27/105 15/29/105 14/28/105
f 15/29/106 16/7/106 13/9/106
f 2/30/107 11/218/107 10/31/107
f 10/31/108 11/218/108 12/33/108
f 25/34/109 28/65/109 20/35/109
f 20/37/110 24/219/110 23/38/110
f 32/40/111 22/220/111 21/41/111
f 22/43/112 18/63/112 17/44/112
f 26/46/113 29/58/113 21/47/113
f 27/49/114 18/221/114 22/50/114
f 20/52/115 28/222/115 31/53/115
f 31/53/116 28/222/116 27/49/116
f 19/55/117 23/223/117 30/56/117
f 25/57/118 30/56/118 29/58/118
f 24/59/119 31/62/119 30/60/119
f 31/62/120 32/40/120 29/42/120
f 18/63/121 27/224/121 26/64/121
f 26/64/122 27/224/122 28/65/122
f 41/66/123 44/97/123 36/67/123
f 36/67/124 40/225/124 39/69/124
f 48/70/125 38/226/125 37/71/125
f 38/73/126 34/227/126 33/74/126
f 42/76/127 45/89/127 37/77/127
f 48/79/128 43/85/128 34/80/128
f 36/82/129 44/228/129 47/83/129
f 47/83/130 44/228/130 43/85/130
f 35/86/131 39/229/131 46/87/131
f 41/88/132 46/87/132 45/89/132
f 40/90/133 47/93/133 46/91/133
f 47/93/134 48/70/134 45/72/134
f 34/94/135 43/230/135 42/95/135
f 42/95/136 43/230/136 44/97/136
f 57/98/137 60/129/137 52/99/137
f 52/99/138 56/231/138 55/101/138
f 64/102/139 54/232/139 53/103/139
f 54/105/140 50/233/140 49/106/140
f 58/108/141 61/121/141 53/109/141
f 64/111/142 59/117/142 50/112/142
f 52/114/143 60/234/143 63/115/143
f 63/115/144 60/234/144 59/117/144
f 51/118/145 55/235/145 62/119/145
f 57/120/146 62/119/146 61/121/146
f 56/122/147 63/125/147 62/123/147
f 63/125/148 64/102/148 61/104/148
f 50/126/149 59/236/149 58/127/149
f 58/127/150 59/236/150 60/129/150
f 73/130/151 76/162/151 68/131/151
f 67/132/152 68/131/152 72/133/152
f 80/135/153 70/237/153 69/136/153
f 70/138/154 66/238/154 65/139/154
f 74/141/155 77/154/155 69/142/155
f 80/144/156 75/150/156 66/145/156
f 68/147/157 76/239/157 79/148/157
f 79/148/158 76/239/158 75/150/158
f 67/151/159 71/240/159 78/152/159
f 73/153/160 78/152/160 77/154/160
f 72/155/161 79/158/161 78/156/161
f 79/158/162 80/135/162 77/137/162
f 66/159/163 75/241/163 74/160/163
f 74/160/164 75/241/164 76/162/164
f 89/163/165 83/167/165 84/164/165
f 87/166/166 88/242/166 84/164/166
f 85/168/167 86/243/167 96/169/167
f 81/171/168 82/244/168 86/172/168
f 90/174/169 81/245/169 85/175/169
f 96/177/170 86/246/170 82/178/170
f 88/180/171 95/183/171 92/181/171
f 95/183/172 96/177/172 91/179/172
f 89/184/173 94/187/173 87/185/173
f 89/184/174 90/174/174 93/176/174
f 87/188/175 94/191/175 95/189/175
f 93/170/176 96/169/176 95/189/176
f 90/192/177 91/195/177 82/193/177
f 90/192/178 89/163/178 92/165/178
f 112/196/179 106/247/179 100/197/179
f 110/199/180 108/202/180 99/200/180
f 112/196/87 107/198/87 108/202/87
f 97/203/181 103/206/181 109/204/181
f 109/204/89 110/199/89 101/201/89
f 103/206/90 104/209/90 111/207/90
f 111/207/91 112/196/91 110/199/91
f 98/208/182 105/210/182 111/207/182
f 105/210/93 106/247/93 112/196/93
f 97/248/94 102/249/94 101/250/94
f 101/250/94 99/213/94 97/248/94
f 108/251/94 107/252/94 100/211/94
f 100/211/94 106/253/94 105/254/94
f 105/254/94 98/212/94 100/211/94
f 104/255/94 103/256/94 97/248/94
f 97/248/94 99/213/94 98/212/94
f 108/251/94 100/211/94 99/213/94
f 98/212/94 104/255/94 97/248/94
